<svg id="visual" viewBox="0 0 900 600" width="900" height="600" xmlns="http://www.w3.org/2000/svg" xmlns:xlink="http://www.w3.org/1999/xlink" version="1.1"><rect x="0" y="0" width="900" height="600" fill="#ffffff"></rect><path d="M0 365L21.5 366.8C43 368.7 86 372.3 128.8 369.5C171.7 366.7 214.3 357.3 257.2 355.8C300 354.3 343 360.7 385.8 370C428.7 379.3 471.3 391.7 514.2 398.5C557 405.3 600 406.7 642.8 399C685.7 391.3 728.3 374.7 771.2 369.2C814 363.7 857 369.3 878.5 372.2L900 375L900 601L878.5 601C857 601 814 601 771.2 601C728.3 601 685.7 601 642.8 601C600 601 557 601 514.2 601C471.3 601 428.7 601 385.8 601C343 601 300 601 257.2 601C214.3 601 171.7 601 128.8 601C86 601 43 601 21.5 601L0 601Z" fill="#000000"></path><path d="M0 403L21.5 410.3C43 417.7 86 432.3 128.8 432.2C171.7 432 214.3 417 257.2 413.3C300 409.7 343 417.3 385.8 422.7C428.7 428 471.3 431 514.2 429.2C557 427.3 600 420.7 642.8 420.8C685.7 421 728.3 428 771.2 433.2C814 438.3 857 441.7 878.5 443.3L900 445L900 601L878.5 601C857 601 814 601 771.2 601C728.3 601 685.7 601 642.8 601C600 601 557 601 514.2 601C471.3 601 428.7 601 385.8 601C343 601 300 601 257.2 601C214.3 601 171.7 601 128.8 601C86 601 43 601 21.5 601L0 601Z" fill="#002440"></path><path d="M0 470L21.5 473.2C43 476.3 86 482.7 128.8 484.7C171.7 486.7 214.3 484.3 257.2 484C300 483.7 343 485.3 385.8 482.3C428.7 479.3 471.3 471.7 514.2 471C557 470.3 600 476.7 642.8 473.5C685.7 470.3 728.3 457.7 771.2 454.2C814 450.7 857 456.3 878.5 459.2L900 462L900 601L878.5 601C857 601 814 601 771.2 601C728.3 601 685.7 601 642.8 601C600 601 557 601 514.2 601C471.3 601 428.7 601 385.8 601C343 601 300 601 257.2 601C214.3 601 171.7 601 128.8 601C86 601 43 601 21.5 601L0 601Z" fill="#25405f"></path><path d="M0 500L21.5 504.7C43 509.3 86 518.7 128.8 521.5C171.7 524.3 214.3 520.7 257.2 518.7C300 516.7 343 516.3 385.8 516.7C428.7 517 471.3 518 514.2 517.5C557 517 600 515 642.8 515.3C685.7 515.7 728.3 518.3 771.2 514.2C814 510 857 499 878.5 493.5L900 488L900 601L878.5 601C857 601 814 601 771.2 601C728.3 601 685.7 601 642.8 601C600 601 557 601 514.2 601C471.3 601 428.7 601 385.8 601C343 601 300 601 257.2 601C214.3 601 171.7 601 128.8 601C86 601 43 601 21.5 601L0 601Z" fill="#465f80"></path><path d="M0 534L21.5 539.3C43 544.7 86 555.3 128.8 557C171.7 558.7 214.3 551.3 257.2 547.5C300 543.7 343 543.3 385.8 544C428.7 544.7 471.3 546.3 514.2 545.2C557 544 600 540 642.8 538C685.7 536 728.3 536 771.2 535C814 534 857 532 878.5 531L900 530L900 601L878.5 601C857 601 814 601 771.2 601C728.3 601 685.7 601 642.8 601C600 601 557 601 514.2 601C471.3 601 428.7 601 385.8 601C343 601 300 601 257.2 601C214.3 601 171.7 601 128.8 601C86 601 43 601 21.5 601L0 601Z" fill="#6880a3"></path></svg>